<svg id="Layer_1" data-name="Layer 1" xmlns="http://www.w3.org/2000/svg" viewBox="0 0 500 500"><defs><style>.cls-1{fill:#ed1c24;}.cls-2{fill:#00a651;}.cls-3{fill:#fff200;}</style></defs><title>rasta</title><g id="Layer_101" data-name="Layer 101"><rect y="450" width="50" height="50"/></g><g id="Layer_100" data-name="Layer 100"><rect class="cls-1" x="50" y="450" width="50" height="50"/></g><g id="Layer_99" data-name="Layer 99"><rect class="cls-2" x="100" y="450" width="50" height="50"/></g><g id="Layer_98" data-name="Layer 98"><rect class="cls-3" x="150" y="450" width="50" height="50"/></g><g id="Layer_97" data-name="Layer 97"><rect x="200" y="450" width="50" height="50"/></g><g id="Layer_96" data-name="Layer 96"><rect class="cls-1" x="250" y="450" width="50" height="50"/></g><g id="Layer_95" data-name="Layer 95"><rect class="cls-2" x="300" y="450" width="50" height="50"/></g><g id="Layer_94" data-name="Layer 94"><rect class="cls-3" x="350" y="450" width="50" height="50"/></g><g id="Layer_93" data-name="Layer 93"><rect x="400" y="450" width="50" height="50"/></g><g id="Layer_92" data-name="Layer 92"><rect class="cls-1" x="450" y="450" width="50" height="50"/></g><g id="Layer_91" data-name="Layer 91"><rect class="cls-1" y="400" width="50" height="50"/></g><g id="Layer_90" data-name="Layer 90"><rect class="cls-2" x="50" y="400" width="50" height="50"/></g><g id="Layer_89" data-name="Layer 89"><rect class="cls-3" x="100" y="400" width="50" height="50"/></g><g id="Layer_88" data-name="Layer 88"><rect x="150" y="400" width="50" height="50"/></g><g id="Layer_87" data-name="Layer 87"><rect class="cls-1" x="200" y="400" width="50" height="50"/></g><g id="Layer_86" data-name="Layer 86"><rect class="cls-2" x="250" y="400" width="50" height="50"/></g><g id="Layer_85" data-name="Layer 85"><rect class="cls-3" x="300" y="400" width="50" height="50"/></g><g id="Layer_84" data-name="Layer 84"><rect x="350" y="400" width="50" height="50"/></g><g id="Layer_83" data-name="Layer 83"><rect class="cls-1" x="400" y="400" width="50" height="50"/></g><g id="Layer_82" data-name="Layer 82"><rect class="cls-2" x="450" y="400" width="50" height="50"/></g><g id="Layer_81" data-name="Layer 81"><rect class="cls-2" y="350" width="50" height="50"/></g><g id="Layer_80" data-name="Layer 80"><rect class="cls-3" x="50" y="350" width="50" height="50"/></g><g id="Layer_79" data-name="Layer 79"><rect x="100" y="350" width="50" height="50"/></g><g id="Layer_78" data-name="Layer 78"><rect class="cls-1" x="150" y="350" width="50" height="50"/></g><g id="Layer_77" data-name="Layer 77"><rect class="cls-2" x="200" y="350" width="50" height="50"/></g><g id="Layer_76" data-name="Layer 76"><rect class="cls-3" x="250" y="350" width="50" height="50"/></g><g id="Layer_75" data-name="Layer 75"><rect x="300" y="350" width="50" height="50"/></g><g id="Layer_74" data-name="Layer 74"><rect class="cls-1" x="350" y="350" width="50" height="50"/></g><g id="Layer_73" data-name="Layer 73"><rect class="cls-2" x="400" y="350" width="50" height="50"/></g><g id="Layer_72" data-name="Layer 72"><rect class="cls-3" x="450" y="350" width="50" height="50"/></g><g id="Layer_71" data-name="Layer 71"><rect class="cls-1" y="300" width="50" height="50"/></g><g id="Layer_70" data-name="Layer 70"><rect class="cls-2" x="50" y="300" width="50" height="50"/></g><g id="Layer_69" data-name="Layer 69"><rect class="cls-3" x="100" y="300" width="50" height="50"/></g><g id="Layer_68" data-name="Layer 68"><rect x="150" y="300" width="50" height="50"/></g><g id="Layer_67" data-name="Layer 67"><rect class="cls-1" x="200" y="300" width="50" height="50"/></g><g id="Layer_66" data-name="Layer 66"><rect class="cls-2" x="250" y="300" width="50" height="50"/></g><g id="Layer_65" data-name="Layer 65"><rect class="cls-3" x="300" y="300" width="50" height="50"/></g><g id="Layer_64" data-name="Layer 64"><rect x="350" y="300" width="50" height="50"/></g><g id="Layer_63" data-name="Layer 63"><rect class="cls-1" x="400" y="300" width="50" height="50"/></g><g id="Layer_62" data-name="Layer 62"><rect class="cls-2" x="450" y="300" width="50" height="50"/></g><g id="Layer_61" data-name="Layer 61"><rect class="cls-2" y="250" width="50" height="50"/></g><g id="Layer_60" data-name="Layer 60"><rect class="cls-3" x="50" y="250" width="50" height="50"/></g><g id="Layer_59" data-name="Layer 59"><rect x="100" y="250" width="50" height="50"/></g><g id="Layer_58" data-name="Layer 58"><rect class="cls-1" x="150" y="250" width="50" height="50"/></g><g id="Layer_57" data-name="Layer 57"><rect class="cls-2" x="200" y="250" width="50" height="50"/></g><g id="Layer_56" data-name="Layer 56"><rect class="cls-3" x="250" y="250" width="50" height="50"/></g><g id="Layer_55" data-name="Layer 55"><rect x="300" y="250" width="50" height="50"/></g><g id="Layer_54" data-name="Layer 54"><rect class="cls-1" x="350" y="250" width="50" height="50"/></g><g id="Layer_53" data-name="Layer 53"><rect class="cls-2" x="400" y="250" width="50" height="50"/></g><g id="Layer_52" data-name="Layer 52"><rect class="cls-3" x="450" y="250" width="50" height="50"/></g><g id="Layer_51" data-name="Layer 51"><rect x="450" y="200" width="50" height="50"/></g><g id="Layer_50" data-name="Layer 50"><rect class="cls-3" y="200" width="50" height="50"/></g><g id="Layer_49" data-name="Layer 49"><rect x="50" y="200" width="50" height="50"/></g><g id="Layer_48" data-name="Layer 48"><rect class="cls-1" x="100" y="200" width="50" height="50"/></g><g id="Layer_47" data-name="Layer 47"><rect class="cls-2" x="150" y="200" width="50" height="50"/></g><g id="Layer_46" data-name="Layer 46"><rect class="cls-3" x="200" y="200" width="50" height="50"/></g><g id="Layer_45" data-name="Layer 45"><rect x="250" y="200" width="50" height="50"/></g><g id="Layer_44" data-name="Layer 44"><rect class="cls-1" x="300" y="200" width="50" height="50"/></g><g id="Layer_43" data-name="Layer 43"><rect class="cls-2" x="350" y="200" width="50" height="50"/></g><g id="Layer_42" data-name="Layer 42"><rect class="cls-3" x="400" y="200" width="50" height="50"/></g><g id="Layer_41" data-name="Layer 41"><rect y="150" width="50" height="50"/></g><g id="Layer_40" data-name="Layer 40"><rect class="cls-1" x="50" y="150" width="50" height="50"/></g><g id="Layer_39" data-name="Layer 39"><rect class="cls-2" x="100" y="150" width="50" height="50"/></g><g id="Layer_38" data-name="Layer 38"><rect class="cls-3" x="150" y="150" width="50" height="50"/></g><g id="Layer_37" data-name="Layer 37"><rect x="200" y="150" width="50" height="50"/></g><g id="Layer_36" data-name="Layer 36"><rect class="cls-1" x="250" y="150" width="50" height="50"/></g><g id="Layer_35" data-name="Layer 35"><rect class="cls-2" x="300" y="150" width="50" height="50"/></g><g id="Layer_34" data-name="Layer 34"><rect class="cls-3" x="350" y="150" width="50" height="50"/></g><g id="Layer_33" data-name="Layer 33"><rect x="400" y="150" width="50" height="50"/></g><g id="Layer_32" data-name="Layer 32"><rect class="cls-1" x="450" y="150" width="50" height="50"/></g><g id="Layer_31" data-name="Layer 31"><rect class="cls-1" y="100" width="50" height="50"/></g><g id="Layer_30" data-name="Layer 30"><rect class="cls-2" x="50" y="100" width="50" height="50"/></g><g id="Layer_29" data-name="Layer 29"><rect class="cls-3" x="100" y="100" width="50" height="50"/></g><g id="Layer_28" data-name="Layer 28"><rect x="150" y="100" width="50" height="50"/></g><g id="Layer_27" data-name="Layer 27"><rect class="cls-1" x="200" y="100" width="50" height="50"/></g><g id="Layer_26" data-name="Layer 26"><rect class="cls-2" x="250" y="100" width="50" height="50"/></g><g id="Layer_25" data-name="Layer 25"><rect class="cls-3" x="300" y="100" width="50" height="50"/></g><g id="Layer_24" data-name="Layer 24"><rect x="350" y="100" width="50" height="50"/></g><g id="Layer_23" data-name="Layer 23"><rect class="cls-1" x="400" y="100" width="50" height="50"/></g><g id="Layer_22" data-name="Layer 22"><rect class="cls-2" x="450" y="100" width="50" height="50"/></g><g id="Layer_21" data-name="Layer 21"><rect class="cls-2" y="50" width="50" height="50"/></g><g id="Layer_20" data-name="Layer 20"><rect class="cls-3" x="50" y="50" width="50" height="50"/></g><g id="Layer_19" data-name="Layer 19"><rect x="100" y="50" width="50" height="50"/></g><g id="Layer_18" data-name="Layer 18"><rect class="cls-1" x="150" y="50" width="50" height="50"/></g><g id="Layer_17" data-name="Layer 17"><rect class="cls-2" x="200" y="50" width="50" height="50"/></g><g id="Layer_16" data-name="Layer 16"><rect class="cls-3" x="250" y="50" width="50" height="50"/></g><g id="Layer_15" data-name="Layer 15"><rect x="300" y="50" width="50" height="50"/></g><g id="Layer_14" data-name="Layer 14"><rect class="cls-1" x="350" y="50" width="50" height="50"/></g><g id="Layer_13" data-name="Layer 13"><rect class="cls-2" x="400" y="50" width="50" height="50"/></g><g id="Layer_12" data-name="Layer 12"><rect class="cls-3" x="450" y="50" width="50" height="50"/></g><g id="Layer_11" data-name="Layer 11"><rect width="50" height="50"/></g><g id="Layer_10" data-name="Layer 10"><rect class="cls-1" x="50" width="50" height="50"/></g><g id="Layer_9" data-name="Layer 9"><rect class="cls-2" x="100" width="50" height="50"/></g><g id="Layer_8" data-name="Layer 8"><rect class="cls-3" x="150" width="50" height="50"/></g><g id="Layer_7" data-name="Layer 7"><rect x="200" width="50" height="50"/></g><g id="Layer_6" data-name="Layer 6"><rect class="cls-1" x="250" width="50" height="50"/></g><g id="Layer_5" data-name="Layer 5"><rect class="cls-2" x="300" width="50" height="50"/></g><g id="Layer_4" data-name="Layer 4"><rect class="cls-3" x="350" width="50" height="50"/></g><g id="Layer_3" data-name="Layer 3"><rect x="400" width="50" height="50"/></g><g id="Layer_2" data-name="Layer 2"><rect class="cls-1" x="450" width="50" height="50"/></g></svg>